<svg xmlns="http://www.w3.org/2000/svg" xmlns:xlink="http://www.w3.org/1999/xlink" xml:space="preserve" id="svg5" width="800" height="418" version="1.1" viewBox="0 0 211.667 110.596"><defs id="defs2"><clipPath id="clipPath8312" clipPathUnits="userSpaceOnUse"/><clipPath id="clipPath8366" clipPathUnits="userSpaceOnUse"/><clipPath id="clipPath8372" clipPathUnits="userSpaceOnUse"/><clipPath id="clipPath8378" clipPathUnits="userSpaceOnUse"/><clipPath id="clipPath8384" clipPathUnits="userSpaceOnUse"/><clipPath id="clipPath8390" clipPathUnits="userSpaceOnUse"/><clipPath id="clipPath8396" clipPathUnits="userSpaceOnUse"/><clipPath id="clipPath8402" clipPathUnits="userSpaceOnUse"/><clipPath id="clipPath8408" clipPathUnits="userSpaceOnUse"/><clipPath id="clipPath8414" clipPathUnits="userSpaceOnUse"/><clipPath id="clipPath8420" clipPathUnits="userSpaceOnUse"/><clipPath id="clipPath8426" clipPathUnits="userSpaceOnUse"/><clipPath id="clipPath8432" clipPathUnits="userSpaceOnUse"/><clipPath id="clipPath8438" clipPathUnits="userSpaceOnUse"/><clipPath id="clipPath8444" clipPathUnits="userSpaceOnUse"/><clipPath id="clipPath8450" clipPathUnits="userSpaceOnUse"/><clipPath id="clipPath8456" clipPathUnits="userSpaceOnUse"/><clipPath id="clipPath8462" clipPathUnits="userSpaceOnUse"/><clipPath id="clipPath8468" clipPathUnits="userSpaceOnUse"/><clipPath id="clipPath8474" clipPathUnits="userSpaceOnUse"/><clipPath id="clipPath8480" clipPathUnits="userSpaceOnUse"/><clipPath id="clipPath8486" clipPathUnits="userSpaceOnUse"/><clipPath id="clipPath8492" clipPathUnits="userSpaceOnUse"/><clipPath id="clipPath8498" clipPathUnits="userSpaceOnUse"/><clipPath id="clipPath8504" clipPathUnits="userSpaceOnUse"/><clipPath id="clipPath8510" clipPathUnits="userSpaceOnUse"/><clipPath id="clipPath8516" clipPathUnits="userSpaceOnUse"/><clipPath id="clipPath8522" clipPathUnits="userSpaceOnUse"/><clipPath id="clipPath8528" clipPathUnits="userSpaceOnUse"/><clipPath id="clipPath8534" clipPathUnits="userSpaceOnUse"/><clipPath id="clipPath8540" clipPathUnits="userSpaceOnUse"/><clipPath id="clipPath8546" clipPathUnits="userSpaceOnUse"/><clipPath id="clipPath8552" clipPathUnits="userSpaceOnUse"/><clipPath id="clipPath8558" clipPathUnits="userSpaceOnUse"/><clipPath id="clipPath8564" clipPathUnits="userSpaceOnUse"/><clipPath id="clipPath8570" clipPathUnits="userSpaceOnUse"/><clipPath id="clipPath8576" clipPathUnits="userSpaceOnUse"/><clipPath id="clipPath8582" clipPathUnits="userSpaceOnUse"/><clipPath id="clipPath8588" clipPathUnits="userSpaceOnUse"/><clipPath id="clipPath8594" clipPathUnits="userSpaceOnUse"/><clipPath id="clipPath8600" clipPathUnits="userSpaceOnUse"/><clipPath id="clipPath8606" clipPathUnits="userSpaceOnUse"/><clipPath id="clipPath8612" clipPathUnits="userSpaceOnUse"/><clipPath id="clipPath8618" clipPathUnits="userSpaceOnUse"/><clipPath id="clipPath8624" clipPathUnits="userSpaceOnUse"/><clipPath id="clipPath8624-7" clipPathUnits="userSpaceOnUse"/><clipPath id="clipPath8618-2" clipPathUnits="userSpaceOnUse"/><clipPath id="clipPath8612-9" clipPathUnits="userSpaceOnUse"/><clipPath id="clipPath8606-6" clipPathUnits="userSpaceOnUse"/><clipPath id="clipPath8600-9" clipPathUnits="userSpaceOnUse"/><clipPath id="clipPath8594-9" clipPathUnits="userSpaceOnUse"/><clipPath id="clipPath8588-8" clipPathUnits="userSpaceOnUse"/><clipPath id="clipPath8582-0" clipPathUnits="userSpaceOnUse"/><clipPath id="clipPath8576-1" clipPathUnits="userSpaceOnUse"/><clipPath id="clipPath8570-3" clipPathUnits="userSpaceOnUse"/><clipPath id="clipPath8564-6" clipPathUnits="userSpaceOnUse"/><clipPath id="clipPath8558-5" clipPathUnits="userSpaceOnUse"/><clipPath id="clipPath8552-6" clipPathUnits="userSpaceOnUse"/><clipPath id="clipPath8546-9" clipPathUnits="userSpaceOnUse"/><clipPath id="clipPath8540-4" clipPathUnits="userSpaceOnUse"/><clipPath id="clipPath8534-5" clipPathUnits="userSpaceOnUse"/><clipPath id="clipPath8528-4" clipPathUnits="userSpaceOnUse"/><clipPath id="clipPath8522-0" clipPathUnits="userSpaceOnUse"/><clipPath id="clipPath8516-6" clipPathUnits="userSpaceOnUse"/><clipPath id="clipPath8510-4" clipPathUnits="userSpaceOnUse"/><clipPath id="clipPath8504-4" clipPathUnits="userSpaceOnUse"/><clipPath id="clipPath8498-0" clipPathUnits="userSpaceOnUse"/><clipPath id="clipPath8492-9" clipPathUnits="userSpaceOnUse"/><clipPath id="clipPath8486-6" clipPathUnits="userSpaceOnUse"/><clipPath id="clipPath8480-5" clipPathUnits="userSpaceOnUse"/><clipPath id="clipPath8474-8" clipPathUnits="userSpaceOnUse"/><clipPath id="clipPath8468-7" clipPathUnits="userSpaceOnUse"/><clipPath id="clipPath8462-2" clipPathUnits="userSpaceOnUse"/><clipPath id="clipPath8456-1" clipPathUnits="userSpaceOnUse"/><clipPath id="clipPath8450-1" clipPathUnits="userSpaceOnUse"/><clipPath id="clipPath8444-4" clipPathUnits="userSpaceOnUse"/><clipPath id="clipPath8438-9" clipPathUnits="userSpaceOnUse"/><clipPath id="clipPath8432-7" clipPathUnits="userSpaceOnUse"/><clipPath id="clipPath8426-5" clipPathUnits="userSpaceOnUse"/><clipPath id="clipPath8420-7" clipPathUnits="userSpaceOnUse"/><clipPath id="clipPath8414-3" clipPathUnits="userSpaceOnUse"/><clipPath id="clipPath8408-6" clipPathUnits="userSpaceOnUse"/><clipPath id="clipPath8402-4" clipPathUnits="userSpaceOnUse"/><clipPath id="clipPath8396-2" clipPathUnits="userSpaceOnUse"/><clipPath id="clipPath8390-9" clipPathUnits="userSpaceOnUse"/><clipPath id="clipPath8384-8" clipPathUnits="userSpaceOnUse"/><clipPath id="clipPath8378-9" clipPathUnits="userSpaceOnUse"/><clipPath id="clipPath8372-8" clipPathUnits="userSpaceOnUse"/><clipPath id="clipPath8366-1" clipPathUnits="userSpaceOnUse"/><clipPath id="clipPath8312-9" clipPathUnits="userSpaceOnUse"/><clipPath id="SVGID_00000171683391743852478260000002390994208354331064_"><use xlink:href="#SVGID_00000027573604992125855210000001097089857358505618_-8" id="use1616" style="overflow:visible"/></clipPath><clipPath id="SVGID_00000181778973928023992280000001083650727911778446_"><use xlink:href="#SVGID_00000049943284894445118840000014396408023471052980_-2" id="use1714" style="overflow:visible"/></clipPath><clipPath id="clip-28"><path id="path266" d="M791 464h62v82h-62zm0 0" clip-rule="nonzero"/></clipPath><clipPath id="clip-29"><path id="path269" d="m793.574 483.594 17.145-17.168a6.135 6.135 0 0 1 8.68 0l50.914 50.984a6.144 6.144 0 0 1 0 8.688l-17.145 17.172a6.135 6.135 0 0 1-8.68 0l-50.914-50.985a6.156 6.156 0 0 1 0-8.691zm0 0" clip-rule="nonzero"/></clipPath><clipPath id="clip-30"><path id="path272" d="M791 464h75v82h-75zm0 0" clip-rule="nonzero"/></clipPath><clipPath id="clip-31"><path id="path275" d="m793.574 483.594 17.145-17.168a6.135 6.135 0 0 1 8.68 0l50.914 50.984a6.144 6.144 0 0 1 0 8.688l-17.145 17.172a6.135 6.135 0 0 1-8.68 0l-50.914-50.985a6.156 6.156 0 0 1 0-8.691zm0 0" clip-rule="nonzero"/></clipPath><clipPath id="clip-32"><path id="path278" d="M791 464h82v82h-82zm0 0" clip-rule="nonzero"/></clipPath><clipPath id="clip-33"><path id="path281" d="m793.574 483.594 17.145-17.168a6.135 6.135 0 0 1 8.68 0l50.914 50.984a6.144 6.144 0 0 1 0 8.688l-17.145 17.172a6.135 6.135 0 0 1-8.68 0l-50.914-50.985a6.156 6.156 0 0 1 0-8.691zm0 0" clip-rule="nonzero"/></clipPath><pattern xlink:href="#pattern9" id="pattern44" patternTransform="rotate(-100 -9.328 19.87) scale(.13692)" preserveAspectRatio="xMidYMid"/><pattern xlink:href="#pattern10" id="pattern43" patternTransform="rotate(-100 -3.493 14.127) scale(.13692)" preserveAspectRatio="xMidYMid"/><pattern xlink:href="#pattern9" id="pattern42" patternTransform="rotate(-100 7.94 5.382) scale(.13692)" preserveAspectRatio="xMidYMid"/><pattern xlink:href="#pattern10" id="pattern41" patternTransform="rotate(-100 13.774 -.362) scale(.13692)" preserveAspectRatio="xMidYMid"/><pattern xlink:href="#pattern9" id="pattern40" patternTransform="rotate(-100 25.207 -9.107) scale(.13692)" preserveAspectRatio="xMidYMid"/><pattern xlink:href="#pattern10" id="pattern39" patternTransform="rotate(-100 31.042 -14.851) scale(.13692)" preserveAspectRatio="xMidYMid"/><pattern xlink:href="#pattern8" id="pattern10" patternTransform="rotate(-100 -3.493 14.127) scale(.13692)" preserveAspectRatio="xMidYMid"/><pattern xlink:href="#pattern8" id="pattern9" patternTransform="rotate(-100 -9.328 19.87) scale(.13692)" preserveAspectRatio="xMidYMid"/><pattern xlink:href="#Strips1_1.5" id="pattern8" x="0" y="0" patternTransform="rotate(-100) scale(.2)" preserveAspectRatio="xMidYMid"/><pattern id="Strips1_1.5" width="2.5" height="1" patternTransform="scale(2)" patternUnits="userSpaceOnUse" preserveAspectRatio="xMidYMid" style="fill:#4ea8f1"><path id="rect140" d="M0-.5h1v2H0z" style="stroke:none"/></pattern><pattern xlink:href="#pattern48" id="pattern60" patternTransform="translate(206.696 -186.736) scale(.27104)"/><pattern xlink:href="#pattern48" id="pattern59" patternTransform="translate(185.432 -24.472) scale(.23547)"/><pattern xlink:href="#pattern31" id="pattern58" patternTransform="translate(-45.324 -56.734) scale(.23547)"/><pattern xlink:href="#pattern31" id="pattern48" patternTransform="translate(190.472 -155.42) scale(.23547)"/><pattern xlink:href="#pattern5706" id="pattern31" patternTransform="translate(-45.324 -56.734) scale(.23547)"/><pattern xlink:href="#pattern5706" id="pattern5708" patternTransform="translate(89.298 -107.347) scale(.26085)"/><pattern xlink:href="#pattern4121" id="pattern5706" patternTransform="translate(-40.62 -59.149) scale(.23547)"/><pattern xlink:href="#pattern2684" id="pattern4178" patternTransform="translate(511.775 -169.169) scale(.26458)"/><pattern xlink:href="#pattern2684" id="pattern4121" patternTransform="translate(96.127 -55.729) scale(.23332)"/><pattern xlink:href="#pattern2684" id="pattern4042" patternTransform="translate(275.425 -124.318) scale(.18404)"/><pattern xlink:href="#pattern2684" id="pattern4037" patternTransform="translate(259.11 -68.354) scale(.20585)"/><pattern id="pattern2684" width="748.935" height="270.374" patternTransform="translate(379.341 -287.01)" patternUnits="userSpaceOnUse"><g id="g2682" transform="translate(-497.062 -222.103) scale(3.77953)"><path id="use2382" d="m131.701 130.114 71.163-71.162" style="fill:#000;fill-opacity:0;stroke:#4ea8f1;stroke-width:.529167;stroke-linecap:butt;stroke-linejoin:miter;stroke-dasharray:none;stroke-opacity:1"/><path id="use2384" d="m133.847 130.114 71.163-71.162" style="fill:#000;fill-opacity:0;stroke:#4ea8f1;stroke-width:.529167;stroke-linecap:butt;stroke-linejoin:miter;stroke-dasharray:none;stroke-opacity:1"/><path id="use2386" d="m135.994 130.114 71.162-71.162" style="fill:#000;fill-opacity:0;stroke:#4ea8f1;stroke-width:.529167;stroke-linecap:butt;stroke-linejoin:miter;stroke-dasharray:none;stroke-opacity:1"/><path id="use2388" d="m138.14 130.114 71.162-71.162" style="fill:#000;fill-opacity:0;stroke:#4ea8f1;stroke-width:.529167;stroke-linecap:butt;stroke-linejoin:miter;stroke-dasharray:none;stroke-opacity:1"/><path id="use2390" d="m140.286 130.114 71.162-71.162" style="fill:#000;fill-opacity:0;stroke:#4ea8f1;stroke-width:.529167;stroke-linecap:butt;stroke-linejoin:miter;stroke-dasharray:none;stroke-opacity:1"/><path id="use2392" d="m142.432 130.114 71.162-71.162" style="fill:#000;fill-opacity:0;stroke:#4ea8f1;stroke-width:.529167;stroke-linecap:butt;stroke-linejoin:miter;stroke-dasharray:none;stroke-opacity:1"/><path id="use2394" d="m144.578 130.114 71.162-71.162" style="fill:#000;fill-opacity:0;stroke:#4ea8f1;stroke-width:.529167;stroke-linecap:butt;stroke-linejoin:miter;stroke-dasharray:none;stroke-opacity:1"/><path id="use2396" d="m146.724 130.114 71.162-71.162" style="fill:#000;fill-opacity:0;stroke:#4ea8f1;stroke-width:.529167;stroke-linecap:butt;stroke-linejoin:miter;stroke-dasharray:none;stroke-opacity:1"/><path id="use2398" d="m148.87 130.114 71.162-71.162" style="fill:#000;fill-opacity:0;stroke:#4ea8f1;stroke-width:.529167;stroke-linecap:butt;stroke-linejoin:miter;stroke-dasharray:none;stroke-opacity:1"/><path id="use2400" d="m151.016 130.114 71.162-71.162" style="fill:#000;fill-opacity:0;stroke:#4ea8f1;stroke-width:.529167;stroke-linecap:butt;stroke-linejoin:miter;stroke-dasharray:none;stroke-opacity:1"/><path id="use2402" d="m153.162 130.114 71.162-71.162" style="fill:#000;fill-opacity:0;stroke:#4ea8f1;stroke-width:.529167;stroke-linecap:butt;stroke-linejoin:miter;stroke-dasharray:none;stroke-opacity:1"/><path id="use2404" d="m155.308 130.114 71.163-71.162" style="fill:#000;fill-opacity:0;stroke:#4ea8f1;stroke-width:.529167;stroke-linecap:butt;stroke-linejoin:miter;stroke-dasharray:none;stroke-opacity:1"/><path id="use2406" d="m157.454 130.114 71.163-71.162" style="fill:#000;fill-opacity:0;stroke:#4ea8f1;stroke-width:.529167;stroke-linecap:butt;stroke-linejoin:miter;stroke-dasharray:none;stroke-opacity:1"/><path id="use2408" d="m159.6 130.114 71.163-71.162" style="fill:#000;fill-opacity:0;stroke:#4ea8f1;stroke-width:.529167;stroke-linecap:butt;stroke-linejoin:miter;stroke-dasharray:none;stroke-opacity:1"/><path id="use2410" d="m161.747 130.114 71.162-71.162" style="fill:#000;fill-opacity:0;stroke:#4ea8f1;stroke-width:.529167;stroke-linecap:butt;stroke-linejoin:miter;stroke-dasharray:none;stroke-opacity:1"/><path id="use2412" d="m163.893 130.114 71.162-71.162" style="fill:#000;fill-opacity:0;stroke:#4ea8f1;stroke-width:.529167;stroke-linecap:butt;stroke-linejoin:miter;stroke-dasharray:none;stroke-opacity:1"/><path id="use2414" d="M166.039 130.114 237.2 58.952" style="fill:#000;fill-opacity:0;stroke:#4ea8f1;stroke-width:.529167;stroke-linecap:butt;stroke-linejoin:miter;stroke-dasharray:none;stroke-opacity:1"/><path id="use2416" d="m168.185 130.114 71.162-71.162" style="fill:#000;fill-opacity:0;stroke:#4ea8f1;stroke-width:.529167;stroke-linecap:butt;stroke-linejoin:miter;stroke-dasharray:none;stroke-opacity:1"/><path id="use2418" d="m170.331 130.114 71.162-71.162" style="fill:#000;fill-opacity:0;stroke:#4ea8f1;stroke-width:.529167;stroke-linecap:butt;stroke-linejoin:miter;stroke-dasharray:none;stroke-opacity:1"/><path id="use2420" d="m172.477 130.114 71.162-71.162" style="fill:#000;fill-opacity:0;stroke:#4ea8f1;stroke-width:.529167;stroke-linecap:butt;stroke-linejoin:miter;stroke-dasharray:none;stroke-opacity:1"/><path id="use2422" d="m174.623 130.114 71.162-71.162" style="fill:#000;fill-opacity:0;stroke:#4ea8f1;stroke-width:.529167;stroke-linecap:butt;stroke-linejoin:miter;stroke-dasharray:none;stroke-opacity:1"/><path id="use2424" d="m176.77 130.114 71.161-71.162" style="fill:#000;fill-opacity:0;stroke:#4ea8f1;stroke-width:.529167;stroke-linecap:butt;stroke-linejoin:miter;stroke-dasharray:none;stroke-opacity:1"/><path id="use2426" d="m178.915 130.114 71.163-71.162" style="fill:#000;fill-opacity:0;stroke:#4ea8f1;stroke-width:.529167;stroke-linecap:butt;stroke-linejoin:miter;stroke-dasharray:none;stroke-opacity:1"/><path id="use2428" d="m181.061 130.114 71.163-71.162" style="fill:#000;fill-opacity:0;stroke:#4ea8f1;stroke-width:.529167;stroke-linecap:butt;stroke-linejoin:miter;stroke-dasharray:none;stroke-opacity:1"/><path id="use2430" d="m183.208 130.114 71.162-71.162" style="fill:#000;fill-opacity:0;stroke:#4ea8f1;stroke-width:.529167;stroke-linecap:butt;stroke-linejoin:miter;stroke-dasharray:none;stroke-opacity:1"/><path id="use2432" d="m185.354 130.114 71.162-71.162" style="fill:#000;fill-opacity:0;stroke:#4ea8f1;stroke-width:.529167;stroke-linecap:butt;stroke-linejoin:miter;stroke-dasharray:none;stroke-opacity:1"/><path id="use2434" d="m187.5 130.114 71.162-71.162" style="fill:#000;fill-opacity:0;stroke:#4ea8f1;stroke-width:.529167;stroke-linecap:butt;stroke-linejoin:miter;stroke-dasharray:none;stroke-opacity:1"/><path id="use2436" d="m189.646 130.114 71.162-71.162" style="fill:#000;fill-opacity:0;stroke:#4ea8f1;stroke-width:.529167;stroke-linecap:butt;stroke-linejoin:miter;stroke-dasharray:none;stroke-opacity:1"/><path id="use2438" d="m191.792 130.114 71.162-71.162" style="fill:#000;fill-opacity:0;stroke:#4ea8f1;stroke-width:.529167;stroke-linecap:butt;stroke-linejoin:miter;stroke-dasharray:none;stroke-opacity:1"/><path id="use2440" d="M193.938 130.114 265.1 58.952" style="fill:#000;fill-opacity:0;stroke:#4ea8f1;stroke-width:.529167;stroke-linecap:butt;stroke-linejoin:miter;stroke-dasharray:none;stroke-opacity:1"/><path id="use2442" d="m196.084 130.114 71.162-71.162" style="fill:#000;fill-opacity:0;stroke:#4ea8f1;stroke-width:.529167;stroke-linecap:butt;stroke-linejoin:miter;stroke-dasharray:none;stroke-opacity:1"/><path id="use2444" d="m198.23 130.114 71.162-71.162" style="fill:#000;fill-opacity:0;stroke:#4ea8f1;stroke-width:.529167;stroke-linecap:butt;stroke-linejoin:miter;stroke-dasharray:none;stroke-opacity:1"/><path id="use2446" d="m200.376 130.114 71.162-71.162" style="fill:#000;fill-opacity:0;stroke:#4ea8f1;stroke-width:.529167;stroke-linecap:butt;stroke-linejoin:miter;stroke-dasharray:none;stroke-opacity:1"/><path id="use2448" d="m202.522 130.114 71.163-71.162" style="fill:#000;fill-opacity:0;stroke:#4ea8f1;stroke-width:.529167;stroke-linecap:butt;stroke-linejoin:miter;stroke-dasharray:none;stroke-opacity:1"/><path id="use2450" d="m204.668 130.114 71.163-71.162" style="fill:#000;fill-opacity:0;stroke:#4ea8f1;stroke-width:.529167;stroke-linecap:butt;stroke-linejoin:miter;stroke-dasharray:none;stroke-opacity:1"/><path id="use2452" d="m206.815 130.114 71.162-71.162" style="fill:#000;fill-opacity:0;stroke:#4ea8f1;stroke-width:.529167;stroke-linecap:butt;stroke-linejoin:miter;stroke-dasharray:none;stroke-opacity:1"/><path id="use2454" d="m208.96 130.114 71.163-71.162" style="fill:#000;fill-opacity:0;stroke:#4ea8f1;stroke-width:.529167;stroke-linecap:butt;stroke-linejoin:miter;stroke-dasharray:none;stroke-opacity:1"/><path id="use2456" d="m211.107 130.114 71.162-71.162" style="fill:#000;fill-opacity:0;stroke:#4ea8f1;stroke-width:.529167;stroke-linecap:butt;stroke-linejoin:miter;stroke-dasharray:none;stroke-opacity:1"/><path id="use2458" d="m213.253 130.114 71.162-71.162" style="fill:#000;fill-opacity:0;stroke:#4ea8f1;stroke-width:.529167;stroke-linecap:butt;stroke-linejoin:miter;stroke-dasharray:none;stroke-opacity:1"/><path id="use2460" d="m215.399 130.114 71.162-71.162" style="fill:#000;fill-opacity:0;stroke:#4ea8f1;stroke-width:.529167;stroke-linecap:butt;stroke-linejoin:miter;stroke-dasharray:none;stroke-opacity:1"/><path id="use2462" d="m217.545 130.114 71.162-71.162" style="fill:#000;fill-opacity:0;stroke:#4ea8f1;stroke-width:.529167;stroke-linecap:butt;stroke-linejoin:miter;stroke-dasharray:none;stroke-opacity:1"/><path id="use2464" d="m219.691 130.114 71.162-71.162" style="fill:#000;fill-opacity:0;stroke:#4ea8f1;stroke-width:.529167;stroke-linecap:butt;stroke-linejoin:miter;stroke-dasharray:none;stroke-opacity:1"/><path id="use2466" d="M221.837 130.114 293 58.952" style="fill:#000;fill-opacity:0;stroke:#4ea8f1;stroke-width:.529167;stroke-linecap:butt;stroke-linejoin:miter;stroke-dasharray:none;stroke-opacity:1"/><path id="use2468" d="m223.983 130.114 71.163-71.162" style="fill:#000;fill-opacity:0;stroke:#4ea8f1;stroke-width:.529167;stroke-linecap:butt;stroke-linejoin:miter;stroke-dasharray:none;stroke-opacity:1"/><path id="use2470" d="m226.13 130.114 71.162-71.162" style="fill:#000;fill-opacity:0;stroke:#4ea8f1;stroke-width:.529167;stroke-linecap:butt;stroke-linejoin:miter;stroke-dasharray:none;stroke-opacity:1"/><path id="use2472" d="m228.275 130.114 71.163-71.162" style="fill:#000;fill-opacity:0;stroke:#4ea8f1;stroke-width:.529167;stroke-linecap:butt;stroke-linejoin:miter;stroke-dasharray:none;stroke-opacity:1"/><path id="use2474" d="m230.422 130.114 71.162-71.162" style="fill:#000;fill-opacity:0;stroke:#4ea8f1;stroke-width:.529167;stroke-linecap:butt;stroke-linejoin:miter;stroke-dasharray:none;stroke-opacity:1"/><path id="use2476" d="m232.568 130.114 71.162-71.162" style="fill:#000;fill-opacity:0;stroke:#4ea8f1;stroke-width:.529167;stroke-linecap:butt;stroke-linejoin:miter;stroke-dasharray:none;stroke-opacity:1"/><path id="use2478" d="m234.714 130.114 71.162-71.162" style="fill:#000;fill-opacity:0;stroke:#4ea8f1;stroke-width:.529167;stroke-linecap:butt;stroke-linejoin:miter;stroke-dasharray:none;stroke-opacity:1"/><path id="use2480" d="m236.86 130.114 71.162-71.162" style="fill:#000;fill-opacity:0;stroke:#4ea8f1;stroke-width:.529167;stroke-linecap:butt;stroke-linejoin:miter;stroke-dasharray:none;stroke-opacity:1"/><path id="use2482" d="m239.006 130.114 71.162-71.162" style="fill:#000;fill-opacity:0;stroke:#4ea8f1;stroke-width:.529167;stroke-linecap:butt;stroke-linejoin:miter;stroke-dasharray:none;stroke-opacity:1"/><path id="use2484" d="m241.152 130.114 71.162-71.162" style="fill:#000;fill-opacity:0;stroke:#4ea8f1;stroke-width:.529167;stroke-linecap:butt;stroke-linejoin:miter;stroke-dasharray:none;stroke-opacity:1"/><path id="use2486" d="m243.298 130.114 71.162-71.162" style="fill:#000;fill-opacity:0;stroke:#4ea8f1;stroke-width:.529167;stroke-linecap:butt;stroke-linejoin:miter;stroke-dasharray:none;stroke-opacity:1"/><path id="use2488" d="m245.444 130.114 71.162-71.162" style="fill:#000;fill-opacity:0;stroke:#4ea8f1;stroke-width:.529167;stroke-linecap:butt;stroke-linejoin:miter;stroke-dasharray:none;stroke-opacity:1"/><path id="use2490" d="m247.59 130.114 71.163-71.162" style="fill:#000;fill-opacity:0;stroke:#4ea8f1;stroke-width:.529167;stroke-linecap:butt;stroke-linejoin:miter;stroke-dasharray:none;stroke-opacity:1"/><path id="use2492" d="M249.736 130.114 320.9 58.952" style="fill:#000;fill-opacity:0;stroke:#4ea8f1;stroke-width:.529167;stroke-linecap:butt;stroke-linejoin:miter;stroke-dasharray:none;stroke-opacity:1"/><path id="use2494" d="m251.882 130.114 71.163-71.162" style="fill:#000;fill-opacity:0;stroke:#4ea8f1;stroke-width:.529167;stroke-linecap:butt;stroke-linejoin:miter;stroke-dasharray:none;stroke-opacity:1"/><path id="use2496" d="m254.029 130.114 71.162-71.162" style="fill:#000;fill-opacity:0;stroke:#4ea8f1;stroke-width:.529167;stroke-linecap:butt;stroke-linejoin:miter;stroke-dasharray:none;stroke-opacity:1"/><path id="use2498" d="m256.175 130.114 71.162-71.162" style="fill:#000;fill-opacity:0;stroke:#4ea8f1;stroke-width:.529167;stroke-linecap:butt;stroke-linejoin:miter;stroke-dasharray:none;stroke-opacity:1"/><path id="use2500" d="m258.32 130.114 71.163-71.162" style="fill:#000;fill-opacity:0;stroke:#4ea8f1;stroke-width:.529167;stroke-linecap:butt;stroke-linejoin:miter;stroke-dasharray:none;stroke-opacity:1"/></g></pattern><pattern id="pattern34" width="82.654" height="95.66" patternTransform="translate(328.085 190.257)" patternUnits="userSpaceOnUse" preserveAspectRatio="xMidYMid"><g id="g21" transform="translate(-172.486 128.645) scale(2.78933)"><ellipse id="path20" cx="76.654" cy="-26.468" rx="14.816" ry="14.643" style="fill:#fff;fill-opacity:1;stroke:none;stroke-width:.488788;stroke-dasharray:.97757,.97757;stroke-dashoffset:0;stroke-opacity:1;paint-order:stroke fill markers"/><g id="stopwatch" style="fill:#4ea8f1;fill-opacity:1;stroke-width:.543949;stroke-dasharray:none" transform="translate(58.65 -47.58) scale(1.45924)"><path id="path1" d="m19.83 8.46 1.25-1.53a.78.78 0 0 0 .19-.6.8.8 0 0 0-.3-.56l-1-.85a.79.79 0 0 0-.6-.19.8.8 0 0 0-.56.3l-1.2 1.45A9.35 9.35 0 0 0 14 5.13V4h1.17a.83.83 0 0 0 .83-.83V1.83a.83.83 0 0 0-.83-.83H9.83a.83.83 0 0 0-.83.83v1.34a.83.83 0 0 0 .83.83H11v1.13a9.45 9.45 0 0 0-3.78 1.48L5.93 5a.84.84 0 0 0-1.17-.11l-1 .84a.84.84 0 0 0-.12 1.17L5 8.59v.05a9.49 9.49 0 1 0 14.79-.18Zm-.4-2.66.77.63-1.06 1.29a9.56 9.56 0 0 0-.75-.66ZM10 2h5v1h-5zm2 2h1v1h-1ZM4.49 6.43l.78-.63 1.15 1.41a9.33 9.33 0 0 0-.73.68ZM12.5 23a8.5 8.5 0 1 1 8.5-8.5 8.51 8.51 0 0 1-8.5 8.5Z" class="cls-1" style="fill:#4ea8f1;fill-opacity:1;stroke-width:.543949;stroke-dasharray:none"/><path id="path2" d="M13 14.29V9.5a.5.5 0 0 0-1 0v5a.47.47 0 0 0 .15.35l4 4a.48.48 0 0 0 .7 0 .48.48 0 0 0 0-.7z" class="cls-1" style="fill:#4ea8f1;fill-opacity:1;stroke-width:.543949;stroke-dasharray:none"/></g></g></pattern><pattern xlink:href="#a" id="d" x="0" y="0" patternTransform="rotate(-135 309.365 -88.77) scale(.43433)" preserveAspectRatio="xMidYMid"/><pattern id="a" width="3" height="1" patternTransform="scale(2)" patternUnits="userSpaceOnUse" preserveAspectRatio="xMidYMid" style="fill:#7dc4f4"><path id="path1-6" d="M0-.5h1v2H0z" style="stroke:none"/></pattern><pattern xlink:href="#a" id="e" x="0" y="0" patternTransform="rotate(-135 309.365 -88.77) scale(.43433)" preserveAspectRatio="xMidYMid"/><pattern id="pattern2" width="3" height="1" patternTransform="scale(2)" patternUnits="userSpaceOnUse" preserveAspectRatio="xMidYMid" style="fill:#7dc4f4"><path id="path2-2" d="M0-.5h1v2H0z" style="stroke:none"/></pattern><path id="SVGID_00000027573604992125855210000001097089857358505618_-8" d="M40.8 136.5h198.8c-2.4-14.3-14.7-24.8-29.2-24.8H70c-14.5.1-26.8 10.6-29.2 24.8z"/><path id="SVGID_00000049943284894445118840000014396408023471052980_-2" d="M40.4 237.3v1.6c0 16.4 13.3 29.6 29.6 29.6h140.4c16.4 0 29.6-13.3 29.6-29.6v-1.6zm80.9 14.7c0-2.4 2-4.4 4.4-4.4h29c2.4 0 4.4 2 4.4 4.4 0 2.4-2 4.4-4.4 4.4h-29c-2.4.1-4.4-1.9-4.4-4.4z"/><path id="path3028" d="M40.4 237.3v1.6c0 16.4 13.3 29.6 29.6 29.6h140.4c16.4 0 29.6-13.3 29.6-29.6v-1.6zm80.9 14.7c0-2.4 2-4.4 4.4-4.4h29c2.4 0 4.4 2 4.4 4.4 0 2.4-2 4.4-4.4 4.4h-29c-2.4.1-4.4-1.9-4.4-4.4z"/><path id="path3030" d="M40.8 136.5h198.8c-2.4-14.3-14.7-24.8-29.2-24.8H70c-14.5.1-26.8 10.6-29.2 24.8z"/><path id="SVGID_00000179625833503168757930000017374847827999470230_" d="M701.4 128.2c-2-4.9-10-15.7-40.9-15.7s-38.9 10.8-40.9 15.7c-.5 1.1-.7 2.3-.7 3.5v26.9h46v8.3h-71.7s-27.6-2-27.6 45.2 27.6 45.2 27.6 45.2h17.4v-22.5c0-17.5 14.2-31.8 31.8-31.8h39.2c11.4 0 20.6-9.2 20.6-20.7v-50.8c-.1-1-.3-2.2-.8-3.3zm-63.5 19.3c-4.6 0-8.3-3.7-8.3-8.3 0-4.6 3.7-8.3 8.3-8.3 4.6 0 8.3 3.7 8.3 8.3 0 4.6-3.7 8.3-8.3 8.3z"/><path id="path19127" d="M40.8 136.5h198.8c-2.4-14.3-14.7-24.8-29.2-24.8H70c-14.5.1-26.8 10.6-29.2 24.8z"/><path id="path19178" d="M40.4 237.3v1.6c0 16.4 13.3 29.6 29.6 29.6h140.4c16.4 0 29.6-13.3 29.6-29.6v-1.6zm80.9 14.7c0-2.4 2-4.4 4.4-4.4h29c2.4 0 4.4 2 4.4 4.4 0 2.4-2 4.4-4.4 4.4h-29c-2.4.1-4.4-1.9-4.4-4.4z"/><defs id="defs1712"><path id="SVGID_00000049943284894445118840000014396408023471052980_" d="M40.4 237.3v1.6c0 16.4 13.3 29.6 29.6 29.6h140.4c16.4 0 29.6-13.3 29.6-29.6v-1.6zm80.9 14.7c0-2.4 2-4.4 4.4-4.4h29c2.4 0 4.4 2 4.4 4.4 0 2.4-2 4.4-4.4 4.4h-29c-2.4.1-4.4-1.9-4.4-4.4z"/></defs><defs id="defs1614"><path id="SVGID_00000027573604992125855210000001097089857358505618_" d="M40.8 136.5h198.8c-2.4-14.3-14.7-24.8-29.2-24.8H70c-14.5.1-26.8 10.6-29.2 24.8z"/></defs><linearGradient id="linearGradient2751"><stop id="stop2749" offset="0" style="stop-color:#4ea8f1;stop-opacity:1"/></linearGradient><style id="style1">.cls-1{fill:#ff7900}.st0{fill:#4ea8f1}</style></defs><g id="g62" transform="translate(6.35)"><path id="path1819" d="M15.437 68.925a6.442 6.442 0 0 1-4.245-1.79c-2.243-2.082-3.39-5.687-3.39-10.707 0-5.02 1.147-8.624 3.39-10.707a6.352 6.352 0 0 1 4.432-1.789h18.692V42.57H22.46a.422.422 0 0 1-.427-.427v-7.182c0-.374.08-.748.214-1.095.56-1.335 2.75-4.46 11.32-4.46 8.546 0 10.762 3.125 11.323 4.46.133.347.213.72.213 1.095v13.563c0 3.285-2.67 5.928-5.954 5.955H28.681a8.056 8.056 0 0 0-8.063 8.064v6.008a.429.429 0 0 1-.134.293c-.08.081-.187.107-.293.135h-4.62c0-.054-.054-.054-.134-.054zm.054-24.165a5.772 5.772 0 0 0-3.738 1.574c-2.057 1.924-3.098 5.315-3.098 10.068 0 4.78 1.041 8.17 3.124 10.092a5.59 5.59 0 0 0 3.792 1.576h4.245v-5.553c0-4.914 3.98-8.892 8.92-8.918h10.466c2.804 0 5.073-2.271 5.1-5.101V34.934c0-.267-.053-.534-.16-.775-.48-1.174-2.483-3.925-10.52-3.925-8.038 0-10.04 2.75-10.52 3.925a1.915 1.915 0 0 0-.162.774v6.756h11.856c.24 0 .428.187.428.427v2.217a.422.422 0 0 1-.428.427H15.49Zm12.043-5.18a2.632 2.632 0 0 1-2.644-2.644 2.632 2.632 0 0 1 2.644-2.643 2.632 2.632 0 0 1 2.643 2.644 2.632 2.632 0 0 1-2.644 2.643zm0-4.406a1.79 1.79 0 1 0 1.788 1.789c0-.988-.8-1.79-1.788-1.79z" class="st0" style="stroke-width:.267016"/><path id="path1821" d="M34.502 81.768c-8.544 0-10.76-3.123-11.32-4.458a3.072 3.072 0 0 1-.215-1.095V62.65c0-3.284 2.67-5.928 5.954-5.954H39.39a8.056 8.056 0 0 0 8.063-8.064v-6.007c0-.107.054-.213.134-.293.081-.08.187-.108.293-.134h4.62a6.29 6.29 0 0 1 4.406 1.789c2.243 2.081 3.391 5.686 3.391 10.706s-1.148 8.624-3.39 10.708a6.352 6.352 0 0 1-4.433 1.788h-18.69v1.363h11.853c.24 0 .428.185.428.427v7.182c0 .373-.08.747-.214 1.095-.588 1.388-2.804 4.512-11.349 4.512zm-5.58-24.191c-2.804 0-5.074 2.27-5.1 5.1v13.564c0 .267.053.535.16.775.48 1.175 2.483 3.925 10.52 3.925 8.037 0 10.04-2.75 10.521-3.926.107-.24.16-.507.16-.774v-6.782H33.328a.422.422 0 0 1-.426-.427v-2.217a.42.42 0 0 1 .426-.427h19.145c1.443 0 2.804-.587 3.845-1.574 2.057-1.924 3.098-5.315 3.098-10.068 0-4.78-1.04-8.17-3.124-10.093a5.59 5.59 0 0 0-3.792-1.575h-4.218v5.58c0 4.913-4.006 8.892-8.919 8.919zm11.614 19.251a2.632 2.632 0 0 1-2.644-2.643 2.632 2.632 0 0 1 2.644-2.644 2.632 2.632 0 0 1 2.644 2.644 2.632 2.632 0 0 1-2.644 2.644zm0-4.432a1.79 1.79 0 1 0 1.79 1.79c0-.989-.802-1.763-1.79-1.79z" class="st0" style="stroke-width:.267016"/><path id="path4119" d="M33.052 30.914c-1.088.023-2.182.01-3.26.163-1.637.275-3.287.733-4.68 1.668-.633.442-1.24 1.016-1.48 1.77-.044.239-.05.492-.06.702-.034 1.97-.01 3.939-.018 5.909 3.42.009 6.838-.023 10.256.031.493.03 1.003-.009 1.482.126.396.142.432.616.468.975.048.79.068 1.592-.06 2.375-.042.282-.24.55-.54.581-.802.097-1.613.073-2.419.096-5.57.06-11.14-.015-16.712.08-.638.031-1.299-.023-1.906.214-1.437.463-2.55 1.61-3.263 2.91-.894 1.633-1.32 3.485-1.492 5.328-.03.387-.053.792-.064 1.151-.053 1.845-.004 3.699.267 5.527.32 1.826.944 3.668 2.182 5.084a5.58 5.58 0 0 0 2.725 1.716c.482.186 1.005.126 1.51.152 1.077.021 2.154.022 3.232.03.037-1.964.027-3.93.113-5.892.04-.89.19-1.787.58-2.596.455-1.056 1.046-2.06 1.835-2.904a9.927 9.927 0 0 1 4.802-2.856c.934-.16 1.887-.135 2.832-.166 3.235-.063 6.472-.056 9.706-.131.156-.006.343-.011.498-.02.458-.014.925-.067 1.336-.288 1-.432 1.85-1.21 2.31-2.201.372-.639.38-1.396.42-2.112l.02-.537c.05-3.105.022-6.21.031-9.315v-3.84c-.24-.527-.535-1.043-.975-1.43-1.058-.962-2.434-1.478-3.797-1.834-.957-.246-1.937-.408-2.926-.424a63.199 63.199 0 0 0-2.953-.042zm-5.549 2.816a3.139 3.139 0 0 1 2.777 1.558 3.246 3.246 0 0 1-.003 3.318c-.555 1.015-1.736 1.581-2.87 1.554-1.272-.023-2.468-.905-2.873-2.111-.454-1.257-.073-2.792.991-3.623a3.22 3.22 0 0 1 1.978-.696z" style="fill:url(#pattern58);fill-opacity:1;stroke:#fff;stroke-width:.112258;stroke-miterlimit:2;stroke-dasharray:none;stroke-dashoffset:9.92504;stroke-opacity:1;paint-order:fill markers stroke"/></g><g id="g3" transform="matrix(.67333 0 0 .67333 18.519 17.16)"><path id="path25" d="M55.718 32.851h137.488" style="fill:#8fc8f2;stroke:#8fc8f2;stroke-width:.793751;stroke-linecap:butt;stroke-linejoin:miter;stroke-dasharray:none;stroke-opacity:1"/><path id="image-picture" d="M88.71 45.852a2.784 2.784 0 0 0-3.46 1.907L79.544 67.5c-.43 1.49.419 3.03 1.908 3.46l19.741 5.705c1.49.43 3.03-.418 3.46-1.907l5.707-19.741a2.787 2.787 0 0 0-1.909-3.462zm-.127.432 19.741 5.706a2.352 2.352 0 0 1 1.602 2.901l-3.121 10.799c-.078.27-.18 1.123-.416 1.15-.238.026-.61-.776-.746-1.027l-3.173-5.9-10.02 5.639a.631.631 0 0 1-.864-.25l-2.071-3.81-7.78 3.861c-.232.115-.951.618-1.128.488-.2-.146.161-.949.241-1.228l4.835-16.727a2.352 2.352 0 0 1 2.9-1.602zm2.467 3.808a2.787 2.787 0 0 0-3.462 1.909 2.785 2.785 0 0 0 1.909 3.46c1.49.43 3.03-.418 3.46-1.907a2.786 2.786 0 0 0-1.907-3.462zm-.127.434a2.352 2.352 0 0 1 1.601 2.9 2.353 2.353 0 0 1-2.902 1.602 2.352 2.352 0 0 1-1.6-2.9 2.352 2.352 0 0 1 2.901-1.602zm10.78 10.437a.631.631 0 0 1 .857.247l3.51 6.36c.08.147.1.32.053.48l-1.902 6.582a2.352 2.352 0 0 1-2.9 1.601l-4.253-1.228a.631.631 0 0 1-.38-.305l-4.285-7.892a.631.631 0 0 1 .25-.854zM88.76 62.496a.631.631 0 0 1 .827.263l5.881 10.661c.127.23.551.854.425 1.038-.144.208-.865-.044-1.152-.127l-13.162-3.804a2.352 2.352 0 0 1-1.6-2.9l.223-.773a.631.631 0 0 1 .332-.394z" style="fill:#4ea8f1;fill-rule:evenodd;stroke-width:.856213"/><path id="SVGCleanerId_0" d="M90.338 41.393v-8.01c0-.532-.393-.963-.925-.963s-.924.431-.924.963v8.914c0 .532.411.963.943.963a.794.794 0 0 0 .168-.017 3.892 3.892 0 0 1 3.712 3.886c0 2.147-1.75 4.002-3.898 4.002-2.146 0-3.896-1.94-3.896-3.788H83.59c0 3.081 2.613 5.715 5.823 5.715 3.21 0 5.803-2.666 5.803-5.876 0-2.882-1.796-5.328-4.878-5.79z" style="fill:#91adb5;stroke-width:.0782476"/><g id="g1" style="fill:#8fc8f2;fill-opacity:1" transform="matrix(.07825 0 0 .07825 69.914 14.06)"><path id="SVGCleanerId_0_1_" d="M261.014 349.318V246.957c0-6.798-5.018-12.312-11.823-12.312-6.79 0-11.808 5.514-11.808 12.312v113.916c0 6.798 5.262 12.312 12.052 12.312.78 0 1.426-.079 2.15-.228 26.396 1.197 47.443 22.985 47.443 49.664 0 27.443-22.363 51.145-49.814 51.145-27.435 0-49.798-24.781-49.798-48.412h-24.639c0 39.385 33.39 73.043 74.413 73.043 41.031 0 74.169-34.068 74.169-75.091-.007-36.833-22.96-68.096-62.345-73.988z" style="fill:#8fc8f2;fill-opacity:1"/></g><path id="path3" d="m85.648 48.057-.818 2.805-.053 1.148 2.676.935.015-.316s.066-1.095.828-1.817c1.138-1.078.062-.613.062-.613l-2.72-2.11z" style="fill:#fff;stroke:none;stroke-width:.181132px;stroke-linecap:butt;stroke-linejoin:miter;stroke-opacity:1"/><path id="path5" d="m102.705 60.467-10.733 5.529 2.497 4.788z" style="fill:url(#pattern43);fill-opacity:1;stroke:none;stroke-width:.181132px;stroke-linecap:butt;stroke-linejoin:miter;stroke-opacity:1"/><path id="path8" d="m90.2 61.463-10.622 5.72 1.308 3.66z" style="fill:url(#pattern44);fill-opacity:1;stroke:none;stroke-width:.181132px;stroke-linecap:butt;stroke-linejoin:miter;stroke-opacity:1"/><path id="path44" d="M55.718 34.439h137.488" style="fill:#8fc8f2;stroke:#8fc8f2;stroke-width:.793751;stroke-linecap:butt;stroke-linejoin:miter;stroke-dasharray:1.5875,1.5875;stroke-dashoffset:0;stroke-opacity:1"/><path id="path4" d="M92.803 34.829c0 .355-.024.803-.378.803h-6.023c-.356 0-.379-.448-.379-.803V32.66c0-.355.023-.726.378-.726h6.023c.355 0 .38.37.38.726v2.169z" style="fill:#fff;fill-opacity:1;stroke:#4ea8f1;stroke-width:.543396;stroke-dasharray:none;stroke-opacity:1"/><path id="path26" d="M123.245 45.852a2.784 2.784 0 0 0-3.46 1.907L114.078 67.5c-.43 1.49.42 3.03 1.909 3.46l19.741 5.705c1.49.43 3.03-.418 3.46-1.907l5.706-19.741a2.787 2.787 0 0 0-1.908-3.462zm-.127.432 19.741 5.706a2.352 2.352 0 0 1 1.601 2.901l-3.12 10.799c-.079.27-.18 1.123-.416 1.15-.238.026-.611-.776-.746-1.027l-3.174-5.9-10.019 5.639a.631.631 0 0 1-.864-.25l-2.072-3.81-7.78 3.861c-.23.115-.95.618-1.128.488-.199-.146.162-.949.242-1.228l4.834-16.727a2.352 2.352 0 0 1 2.901-1.602zm2.467 3.808a2.787 2.787 0 0 0-3.462 1.909 2.785 2.785 0 0 0 1.909 3.46c1.49.43 3.03-.418 3.46-1.907a2.786 2.786 0 0 0-1.907-3.462zm-.127.434a2.352 2.352 0 0 1 1.601 2.9 2.353 2.353 0 0 1-2.902 1.602 2.352 2.352 0 0 1-1.6-2.9 2.352 2.352 0 0 1 2.9-1.602zm10.78 10.437a.631.631 0 0 1 .857.247l3.51 6.36c.08.147.1.32.053.48l-1.902 6.582a2.352 2.352 0 0 1-2.901 1.601l-4.252-1.228a.631.631 0 0 1-.38-.305l-4.285-7.892a.631.631 0 0 1 .25-.854zm-12.944 1.533a.631.631 0 0 1 .826.263l5.882 10.661c.127.23.55.854.424 1.038-.143.208-.864-.044-1.151-.127l-13.162-3.804a2.352 2.352 0 0 1-1.6-2.9l.222-.773a.631.631 0 0 1 .333-.394z" style="fill:#4ea8f1;fill-rule:evenodd;stroke-width:.856213"/><path id="path27" d="M124.872 41.393v-8.01c0-.532-.392-.963-.925-.963-.531 0-.924.431-.924.963v8.914c0 .532.412.963.943.963a.794.794 0 0 0 .169-.017 3.892 3.892 0 0 1 3.712 3.886c0 2.147-1.75 4.002-3.898 4.002-2.147 0-3.896-1.94-3.896-3.788h-1.928c0 3.081 2.612 5.715 5.822 5.715s5.804-2.666 5.804-5.876c0-2.882-1.797-5.328-4.879-5.79z" style="fill:#91adb5;stroke-width:.0782476"/><g id="g28" style="fill:#8fc8f2;fill-opacity:1" transform="matrix(.07825 0 0 .07825 104.449 14.06)"><path id="path28" d="M261.014 349.318V246.957c0-6.798-5.018-12.312-11.823-12.312-6.79 0-11.808 5.514-11.808 12.312v113.916c0 6.798 5.262 12.312 12.052 12.312.78 0 1.426-.079 2.15-.228 26.396 1.197 47.443 22.985 47.443 49.664 0 27.443-22.363 51.145-49.814 51.145-27.435 0-49.798-24.781-49.798-48.412h-24.639c0 39.385 33.39 73.043 74.413 73.043 41.031 0 74.169-34.068 74.169-75.091-.007-36.833-22.96-68.096-62.345-73.988z" style="fill:#8fc8f2;fill-opacity:1"/></g><path id="path29" d="m120.183 48.057-.818 2.805-.054 1.148 2.677.935.015-.316s.066-1.095.828-1.817c1.138-1.078.061-.613.061-.613l-2.719-2.11z" style="fill:#fff;stroke:none;stroke-width:.181132px;stroke-linecap:butt;stroke-linejoin:miter;stroke-opacity:1"/><path id="path30" d="m137.24 60.467-10.734 5.529 2.498 4.788z" style="fill:url(#pattern41);fill-opacity:1;stroke:none;stroke-width:.181132px;stroke-linecap:butt;stroke-linejoin:miter;stroke-opacity:1"/><path id="path31" d="m124.735 61.463-10.623 5.72 1.309 3.66z" style="fill:url(#pattern42);fill-opacity:1;stroke:none;stroke-width:.181132px;stroke-linecap:butt;stroke-linejoin:miter;stroke-opacity:1"/><path id="path32" d="M127.338 34.829c0 .355-.025.803-.379.803h-6.022c-.356 0-.379-.448-.379-.803V32.66c0-.355.023-.726.378-.726h6.023c.354 0 .379.37.379.726v2.169z" style="fill:#fff;fill-opacity:1;stroke:#4ea8f1;stroke-width:.543396;stroke-dasharray:none;stroke-opacity:1"/><path id="path33" d="M157.78 45.852a2.784 2.784 0 0 0-3.46 1.907L148.612 67.5c-.43 1.49.42 3.03 1.909 3.46l19.74 5.705c1.49.43 3.03-.418 3.46-1.907l5.707-19.741a2.787 2.787 0 0 0-1.908-3.462zm-.127.432 19.74 5.706a2.352 2.352 0 0 1 1.602 2.901l-3.12 10.799c-.079.27-.18 1.123-.416 1.15-.239.026-.611-.776-.746-1.027l-3.174-5.9-10.02 5.639a.631.631 0 0 1-.864-.25l-2.07-3.81-7.78 3.861c-.232.115-.952.618-1.129.488-.199-.146.161-.949.242-1.228l4.834-16.727a2.352 2.352 0 0 1 2.9-1.602zm2.466 3.808a2.787 2.787 0 0 0-3.461 1.909 2.785 2.785 0 0 0 1.908 3.46c1.49.43 3.03-.418 3.46-1.907a2.786 2.786 0 0 0-1.907-3.462zm-.127.434a2.352 2.352 0 0 1 1.602 2.9 2.353 2.353 0 0 1-2.902 1.602 2.352 2.352 0 0 1-1.6-2.9 2.352 2.352 0 0 1 2.9-1.602zm10.78 10.437a.631.631 0 0 1 .857.247l3.51 6.36c.08.147.1.32.053.48l-1.902 6.582a2.352 2.352 0 0 1-2.9 1.601l-4.253-1.228a.631.631 0 0 1-.38-.305l-4.284-7.892a.631.631 0 0 1 .25-.854zm-12.943 1.533a.631.631 0 0 1 .826.263l5.881 10.661c.127.23.551.854.425 1.038-.143.208-.864-.044-1.152-.127l-13.162-3.804a2.352 2.352 0 0 1-1.6-2.9l.223-.773a.631.631 0 0 1 .332-.394z" style="fill:#4ea8f1;fill-rule:evenodd;stroke-width:.856213"/><path id="path34" d="M159.407 41.393v-8.01c0-.532-.392-.963-.925-.963-.531 0-.924.431-.924.963v8.914c0 .532.412.963.943.963a.794.794 0 0 0 .168-.017 3.892 3.892 0 0 1 3.713 3.886c0 2.147-1.75 4.002-3.898 4.002-2.147 0-3.897-1.94-3.897-3.788h-1.928c0 3.081 2.613 5.715 5.823 5.715 3.21 0 5.804-2.666 5.804-5.876-.001-2.882-1.797-5.328-4.879-5.79z" style="fill:#91adb5;stroke-width:.0782476"/><g id="g35" style="fill:#8fc8f2;fill-opacity:1" transform="matrix(.07825 0 0 .07825 138.983 14.06)"><path id="path35" d="M261.014 349.318V246.957c0-6.798-5.018-12.312-11.823-12.312-6.79 0-11.808 5.514-11.808 12.312v113.916c0 6.798 5.262 12.312 12.052 12.312.78 0 1.426-.079 2.15-.228 26.396 1.197 47.443 22.985 47.443 49.664 0 27.443-22.363 51.145-49.814 51.145-27.435 0-49.798-24.781-49.798-48.412h-24.639c0 39.385 33.39 73.043 74.413 73.043 41.031 0 74.169-34.068 74.169-75.091-.007-36.833-22.96-68.096-62.345-73.988z" style="fill:#8fc8f2;fill-opacity:1"/></g><path id="path36" d="m154.717 48.057-.818 2.805-.053 1.148 2.676.935.016-.316s.066-1.095.828-1.817c1.138-1.078.061-.613.061-.613l-2.719-2.11z" style="fill:#fff;stroke:none;stroke-width:.181132px;stroke-linecap:butt;stroke-linejoin:miter;stroke-opacity:1"/><path id="path37" d="m171.774 60.467-10.733 5.529 2.498 4.788z" style="fill:url(#pattern39);fill-opacity:1;stroke:none;stroke-width:.181132px;stroke-linecap:butt;stroke-linejoin:miter;stroke-opacity:1"/><path id="path38" d="m159.27 61.463-10.623 5.72 1.309 3.66z" style="fill:url(#pattern40);fill-opacity:1;stroke:none;stroke-width:.181132px;stroke-linecap:butt;stroke-linejoin:miter;stroke-opacity:1"/><path id="path39" d="M161.873 34.829c0 .355-.025.803-.379.803h-6.023c-.355 0-.378-.448-.378-.803V32.66c0-.355.023-.726.378-.726h6.023c.354 0 .379.37.379.726v2.169z" style="fill:#fff;fill-opacity:1;stroke:#4ea8f1;stroke-width:.543396;stroke-dasharray:none;stroke-opacity:1"/></g><g id="g2" transform="translate(41.827 -19.428) scale(.91028)"><path id="path7" d="M160.592 58.37c-12.09.008-24.18-.06-36.27.076-1.29.024-2.615.007-3.866.336-.68.96-.375 2.236-.466 3.34.005.621-.216 1.47.7 1.181h52.835c-.06-1.394.243-2.914-.395-4.205-.363-.692-1.15-.836-1.86-.737z" style="fill:#7dc4f4;fill-opacity:1;stroke:none;stroke-width:1.23745;stroke-miterlimit:2;stroke-dasharray:none;stroke-dashoffset:9.92504;stroke-opacity:1;paint-order:fill markers stroke"/><circle id="circle7" cx="123.204" cy="60.847" r="1.176" style="fill:#fff;fill-opacity:1;stroke:none;stroke-width:.481038;stroke-linejoin:miter;stroke-miterlimit:2;stroke-dasharray:none;stroke-dashoffset:0;stroke-opacity:1;paint-order:stroke fill markers"/><circle id="circle8" cx="126.908" cy="60.847" r="1.176" style="fill:#fff;fill-opacity:1;stroke:none;stroke-width:.481038;stroke-linejoin:miter;stroke-miterlimit:2;stroke-dasharray:none;stroke-dashoffset:0;stroke-opacity:1;paint-order:stroke fill markers"/><path id="path8-1" d="m119.199 64.32 55.039-.015m-53.04-6.755h51.04a2 2 0 0 1 2 2v45.718a2 2 0 0 1-2 2h-51.04a2 2 0 0 1-2-2V59.551a2 2 0 0 1 2-2.001z" style="fill:none;fill-opacity:1;stroke:#4ea8f1;stroke-width:.79991;stroke-linecap:butt;stroke-linejoin:miter;stroke-dasharray:none;stroke-opacity:1"/><path id="path9" d="M127.352 69.019h38.73a2 2 0 0 1 2 2v6.198a2 2 0 0 1-2 2h-38.73a2 2 0 0 1-2-2v-6.198a2 2 0 0 1 2-2zm0 17.805h13.796a2 2 0 0 1 2 2v9.817a2 2 0 0 1-2 2h-13.794a2 2 0 0 1-2-2v-9.817a2 2 0 0 1 2-2z" style="fill:#fff;fill-opacity:1;stroke:#4ea8f1;stroke-width:1.23745;stroke-linejoin:miter;stroke-miterlimit:2;stroke-dasharray:none;stroke-dashoffset:0;stroke-opacity:1;paint-order:stroke fill markers"/><path id="path10" d="M168.575 88.304h-23.517m23.517 1.963h-23.517m23.517 1.965h-23.517m23.517 1.965h-23.517m23.517 1.964h-23.517m23.517 1.965h-23.517m23.517 1.964h-23.517" style="fill:none;stroke:#7dc4f4;stroke-width:.793747;stroke-linecap:butt;stroke-linejoin:miter;stroke-dasharray:none;stroke-opacity:1"/><path id="path11" d="M124.862 81.977h43.713" style="fill:#7dc4f4;fill-opacity:1;stroke:#7dc4f4;stroke-width:.793747;stroke-linecap:butt;stroke-linejoin:miter;stroke-dasharray:none;stroke-opacity:1"/><path id="path12" d="M124.862 83.941h43.713" style="fill:none;stroke:#7dc4f4;stroke-width:.793747;stroke-linecap:butt;stroke-linejoin:miter;stroke-dasharray:none;stroke-opacity:1"/><path id="path13" d="M165.629 69.528c-12.833.053-25.673-.03-38.505.063-1.167.152-1.365 1.525-1.246 2.478.092 1.938-.189 3.94.184 5.835.733 1.133 2.204.718 3.324.785 12.315 0 24.63.017 36.945-.028 1.147-.211 1.353-1.545 1.223-2.51-.072-1.935.17-3.925-.167-5.826-.34-.623-1.09-.833-1.758-.797z" style="fill:url(#d);fill-opacity:1;stroke:none;stroke-width:.112257;stroke-miterlimit:2;stroke-dasharray:none;stroke-dashoffset:9.92504;stroke-opacity:1;paint-order:fill markers stroke"/><path id="path14" d="M140.944 87.341c-3.299.029-6.6.007-9.899.016-1.303.012-2.61-.021-3.912.017-.836.113-1.378 1.01-1.25 1.813.008 3.232-.025 6.467.028 9.698.122.848 1.042 1.357 1.846 1.226 4.549-.007 9.1.023 13.647-.024.836-.118 1.353-1.031 1.214-1.827-.006-3.222.024-6.445-.026-9.666-.102-.779-.895-1.3-1.648-1.253z" style="fill:url(#e);fill-opacity:1;stroke:none;stroke-width:1.23745;stroke-linejoin:miter;stroke-miterlimit:2;stroke-dasharray:none;stroke-dashoffset:0;stroke-opacity:1;paint-order:stroke fill markers"/></g></svg>